<svg width="13" height="12" viewBox="0 0 13 12" fill="none" xmlns="http://www.w3.org/2000/svg">
<path d="M5.99674 0.665155C6.26931 -0.173722 7.4561 -0.173721 7.72867 0.665156L8.49811 3.03327C8.62001 3.40842 8.96961 3.66242 9.36407 3.66242H11.8541C12.7361 3.66242 13.1028 4.79113 12.3892 5.30958L10.3748 6.77315C10.0557 7.00501 9.92215 7.41599 10.044 7.79115L10.8135 10.1593C11.0861 10.9981 10.1259 11.6957 9.41233 11.1773L7.3979 9.71369C7.07877 9.48183 6.64664 9.48183 6.32751 9.71369L4.31308 11.1773C3.59948 11.6957 2.63935 10.9981 2.91192 10.1593L3.68137 7.79115C3.80326 7.41599 3.66973 7.00501 3.3506 6.77315L1.33616 5.30958C0.622573 4.79113 0.989311 3.66242 1.87136 3.66242H4.36134C4.7558 3.66242 5.1054 3.40842 5.2273 3.03327L5.99674 0.665155Z" fill="#61B7FA"/>
</svg>
